<?xml version="1.0" standalone="no"?>
<!DOCTYPE svg PUBLIC "-//W3C//DTD SVG 20010904//EN"
 "http://www.w3.org/TR/2001/REC-SVG-20010904/DTD/svg10.dtd">
<svg version="1.0" xmlns="http://www.w3.org/2000/svg"
 width="828.000000pt" height="803.000000pt" viewBox="0 0 828.000000 803.000000"
 preserveAspectRatio="xMidYMid meet">
<metadata>
Created by potrace 1.16, written by Peter Selinger 2001-2019
</metadata>
<g transform="translate(0.000000,803.000000) scale(0.100000,-0.100000)"
fill="#000000" stroke="none">
<path d="M0 4015 l0 -4015 4140 0 4140 0 0 4015 0 4015 -4140 0 -4140 0 0
-4015z m7637 3644 c83 -40 78 21 78 -905 0 -701 -2 -825 -15 -848 -19 -37 -82
-72 -155 -86 l-60 -12 -115 -161 c-63 -88 -151 -210 -196 -271 -44 -61 -159
-219 -254 -351 -95 -132 -213 -294 -260 -360 -103 -142 -525 -726 -834 -1155
-121 -168 -234 -326 -253 -351 -18 -26 -33 -51 -33 -56 0 -6 18 -18 40 -28 22
-10 45 -24 51 -32 9 -11 176 -13 948 -13 898 0 938 -1 978 -19 77 -36 73 6 76
-785 l2 -705 -30 -30 c-16 -17 -46 -36 -66 -41 -24 -7 -1213 -9 -3426 -8
l-3390 3 -36 28 c-23 17 -40 42 -47 65 -8 25 -10 252 -8 723 3 671 3 687 23
709 45 51 34 50 800 50 575 0 716 3 713 13 -3 12 -115 190 -477 760 -85 133
-206 325 -271 427 -64 102 -203 322 -310 490 -257 407 -223 368 -307 359 -94
-11 -162 4 -199 42 l-29 30 -2 837 c-2 661 0 842 10 862 7 14 31 35 53 47 41
23 45 24 1509 188 220 25 456 52 525 60 69 8 305 35 525 60 1752 196 4000 450
4200 474 130 16 195 13 242 -10z m-4459 -6505 c25 -16 29 -51 8 -79 -13 -18
-18 -18 -64 -6 -89 22 -164 -14 -209 -102 -36 -70 -45 -223 -18 -294 32 -83
111 -153 172 -153 45 0 56 14 61 73 5 60 -9 97 -37 97 -30 0 -46 26 -33 55 11
23 17 25 75 25 36 0 68 -5 75 -12 15 -15 16 -237 1 -271 -19 -42 -66 -62 -144
-62 -60 1 -79 5 -125 31 -111 62 -166 188 -158 363 9 196 89 314 235 351 48
11 131 3 161 -16z m1292 6 c19 -19 20 -33 20 -313 0 -215 3 -296 12 -305 7 -7
39 -12 76 -12 82 0 102 -11 102 -56 0 -45 -23 -54 -143 -54 -103 0 -133 6
-141 26 -10 25 -19 508 -11 607 7 98 19 127 51 127 8 0 23 -9 34 -20z m390 0
c19 -19 20 -33 20 -365 l0 -345 -24 -15 c-27 -18 -69 -7 -80 20 -12 31 -7 665
5 688 22 42 48 48 79 17z m-1242 -12 c17 -17 15 -43 -4 -59 -9 -8 -54 -17
-101 -20 -46 -4 -87 -10 -91 -14 -10 -9 -15 -158 -8 -200 6 -32 10 -34 54 -40
69 -10 79 -14 85 -35 8 -30 -15 -51 -69 -61 -61 -11 -74 -28 -74 -97 0 -85 7
-92 100 -92 67 0 83 -3 100 -20 24 -24 25 -38 3 -62 -14 -16 -33 -18 -149 -18
-126 0 -134 1 -148 22 -14 19 -16 69 -16 346 0 204 4 330 10 343 10 17 23 19
153 19 98 0 147 -4 155 -12z m430 0 c31 -31 -6 -78 -59 -78 -62 0 -59 15 -59
-306 0 -281 -1 -295 -20 -314 -22 -22 -42 -25 -71 -10 -18 10 -19 24 -19 305
0 318 -1 325 -55 325 -57 0 -92 31 -80 71 6 18 19 19 179 19 120 0 176 -4 184
-12z m1292 -7 c20 -39 -12 -71 -73 -71 -19 0 -40 -6 -46 -13 -7 -9 -12 -112
-13 -313 l-3 -299 -27 -9 c-20 -7 -33 -5 -52 8 l-26 16 0 299 c0 327 3 311
-60 311 -42 0 -75 31 -66 63 l6 27 175 0 c162 0 175 -1 185 -19z m178 -623
c13 -13 16 -47 6 -72 -7 -19 -74 -22 -92 -4 -18 18 -15 65 6 77 23 14 65 14
80 -1z"/>
<path d="M7255 7510 c-272 -32 -1098 -126 -2145 -245 -718 -82 -1673 -190
-2060 -235 -344 -40 -942 -108 -1500 -171 -245 -28 -530 -60 -635 -72 l-190
-22 -3 -779 -2 -778 42 6 c24 3 509 58 1078 122 569 64 1036 117 1038 119 7 7
-12 195 -20 195 -5 0 -24 -11 -41 -24 -124 -95 -271 -85 -392 26 -126 115
-184 352 -156 638 23 231 78 379 180 480 169 170 410 118 513 -110 35 -77 56
-153 73 -267 8 -54 15 -104 15 -111 0 -8 23 6 51 31 28 24 70 54 95 66 l44 22
0 159 c0 186 -2 190 -102 190 -38 0 -62 5 -72 16 -40 39 -26 107 26 128 18 8
133 24 255 36 209 22 223 22 247 6 20 -12 26 -25 26 -52 0 -65 -21 -82 -125
-99 -70 -12 -75 -22 -75 -160 0 -67 2 -124 5 -127 3 -3 48 10 100 28 112 39
234 64 319 64 59 1 62 2 84 38 21 31 23 46 20 109 -2 40 -9 78 -15 84 -7 7
-37 11 -71 10 -76 -1 -112 23 -112 75 0 47 37 80 98 89 154 20 417 42 439 36
50 -13 53 -110 4 -135 -14 -8 -48 -17 -74 -21 -77 -12 -90 -28 -88 -114 1 -41
4 -77 7 -82 3 -5 19 -9 35 -9 40 0 68 -16 79 -46 7 -18 17 -24 38 -24 36 0
185 -25 275 -47 37 -9 69 -14 72 -11 3 2 -42 107 -99 233 -111 242 -114 256
-65 283 29 16 106 10 124 -9 7 -8 59 -115 115 -239 56 -124 108 -232 116 -240
14 -13 17 -13 33 6 9 12 59 135 111 274 102 272 105 277 180 287 78 11 89 -33
39 -162 -80 -207 -209 -565 -209 -578 0 -8 17 -26 38 -39 113 -76 204 -193
249 -318 24 -67 26 -88 25 -192 -2 -113 -1 -118 19 -118 48 0 2239 249 2250
256 5 3 9 329 9 780 l0 774 -37 -1 c-21 -1 -146 -14 -278 -29z m-22 -134 c10
-8 20 -30 24 -49 8 -50 -20 -93 -66 -102 -86 -16 -131 -63 -131 -135 0 -59 23
-94 140 -215 142 -148 185 -263 169 -450 -16 -183 -114 -298 -291 -340 -147
-34 -223 -9 -223 74 0 64 23 79 122 85 111 5 160 33 199 111 24 49 26 64 22
133 -6 103 -26 138 -151 269 -137 144 -160 183 -165 287 -5 106 20 177 87 244
85 85 212 127 264 88z m-557 -91 c23 -36 17 -174 -10 -204 -24 -26 -40 -27
-66 -1 -17 17 -20 33 -20 103 0 59 5 89 16 105 21 30 59 29 80 -3z m-430 -82
c72 -37 121 -89 158 -167 23 -49 27 -70 27 -149 0 -104 -24 -197 -66 -259 -32
-47 -32 -62 5 -108 90 -113 99 -231 29 -371 -48 -97 -127 -145 -284 -172 -161
-28 -229 -30 -253 -10 -23 20 -26 75 -38 838 -5 324 -4 383 9 399 19 26 83 35
232 32 113 -2 124 -4 181 -33z m-4116 -424 c83 -18 100 -53 58 -116 -30 -43
-44 -47 -163 -48 -119 0 -143 -10 -223 -93 -59 -62 -114 -166 -131 -250 -37
-180 17 -437 114 -537 76 -78 205 -96 312 -44 79 38 123 26 140 -39 11 -47
-15 -80 -94 -118 -137 -66 -294 -57 -421 25 -146 96 -214 240 -229 491 -13
227 60 449 192 585 61 63 111 95 190 123 94 33 169 40 255 21z m-856 -80 c35
-16 48 -60 33 -106 -11 -33 -18 -39 -74 -59 -71 -24 -88 -36 -109 -75 -35 -69
-13 -118 120 -258 154 -163 194 -258 183 -436 -13 -216 -124 -341 -334 -376
-39 -6 -87 -9 -107 -5 -71 13 -101 102 -51 151 21 22 33 25 97 25 155 0 239
94 225 252 -8 87 -39 139 -159 264 -136 142 -163 194 -162 304 1 102 28 163
105 234 57 53 138 94 186 95 12 1 33 -4 47 -10z"/>
<path d="M6015 7054 c-15 -15 -16 -40 -9 -228 4 -135 11 -214 18 -219 19 -14
84 0 131 28 161 94 163 334 4 416 -47 24 -121 25 -144 3z"/>
<path d="M6054 6416 c-17 -7 -34 -21 -38 -31 -11 -30 -6 -189 7 -215 12 -23
19 -25 72 -24 115 2 185 66 185 168 0 36 -6 52 -28 77 -25 28 -35 32 -98 35
-46 3 -79 0 -100 -10z"/>
<path d="M2605 6681 c-70 -42 -115 -129 -141 -271 -15 -86 -18 -338 -5 -420
30 -181 135 -295 228 -246 63 32 118 117 150 231 23 81 28 313 9 432 -14 96
-53 202 -88 243 -43 51 -101 63 -153 31z"/>
<path d="M4170 6585 c10 -12 10 -15 -1 -15 -11 0 -11 -2 1 -10 13 -9 13 -11 0
-20 -13 -8 -12 -10 3 -10 15 0 17 -6 12 -37 -5 -31 -4 -35 5 -20 18 29 1 127
-22 127 -6 0 -5 -6 2 -15z"/>
<path d="M4143 6480 c0 -102 0 -108 8 -53 4 35 11 67 14 73 3 5 2 10 -4 10 -5
0 -12 19 -14 43 -2 23 -4 -10 -4 -73z"/>
<path d="M3860 6510 c0 -13 30 -13 50 0 11 7 7 10 -17 10 -18 0 -33 -4 -33
-10z"/>
<path d="M3753 6503 c9 -2 23 -2 30 0 6 3 -1 5 -18 5 -16 0 -22 -2 -12 -5z"/>
<path d="M4243 6503 c15 -2 39 -2 55 0 15 2 2 4 -28 4 -30 0 -43 -2 -27 -4z"/>
<path d="M4368 6493 c6 -2 18 -2 25 0 6 3 1 5 -13 5 -14 0 -19 -2 -12 -5z"/>
<path d="M3665 6480 c3 -5 12 -7 20 -3 21 7 19 13 -6 13 -11 0 -18 -4 -14 -10z"/>
<path d="M3748 6483 c6 -2 18 -2 25 0 6 3 1 5 -13 5 -14 0 -19 -2 -12 -5z"/>
<path d="M3798 6477 c-32 -6 -58 -14 -58 -19 0 -15 150 -9 166 6 8 8 14 17 14
20 0 8 -54 5 -122 -7z m79 -3 c-3 -3 -12 -4 -19 -1 -8 3 -5 6 6 6 11 1 17 -2
13 -5z"/>
<path d="M4210 6480 c0 -5 7 -10 15 -10 8 0 15 5 15 10 0 6 -7 10 -15 10 -8 0
-15 -4 -15 -10z"/>
<path d="M4448 6483 c6 -2 18 -2 25 0 6 3 1 5 -13 5 -14 0 -19 -2 -12 -5z"/>
<path d="M4517 6464 c6 -16 19 -18 27 -5 3 5 -3 11 -13 14 -14 3 -18 1 -14 -9z"/>
<path d="M3570 6460 c-24 -8 -23 -8 8 -9 20 -1 31 3 27 9 -3 6 -7 10 -8 9 -1
-1 -13 -5 -27 -9z"/>
<path d="M4250 6450 c13 -9 13 -11 0 -21 -11 -8 -12 -12 -2 -16 6 -2 12 -13
12 -24 0 -12 7 -19 20 -19 11 0 20 -4 20 -10 0 -5 14 -10 30 -10 17 0 30 5 30
10 0 6 9 10 20 10 19 0 20 -7 20 -97 -1 -62 -6 -107 -14 -122 l-13 -24 -19 32
c-17 29 -54 43 -54 21 0 -5 -9 -10 -20 -10 -13 0 -20 -7 -20 -19 0 -11 -6 -22
-12 -25 -10 -5 -10 -7 0 -12 15 -7 18 -324 2 -324 -5 0 -10 -4 -10 -10 0 -5
18 -10 40 -10 22 0 40 -4 40 -10 0 -5 -18 -10 -40 -10 -22 0 -40 -4 -40 -10 0
-5 -9 -10 -20 -10 -11 0 -20 -4 -20 -10 0 -5 14 -10 30 -10 17 0 30 -4 30 -10
0 -5 -13 -10 -30 -10 -27 0 -30 -3 -30 -30 l0 -30 60 0 c33 0 60 4 60 10 0 6
18 10 41 10 34 0 40 -3 35 -16 -6 -14 0 -16 39 -12 25 3 45 2 45 -3 0 -13 34
-11 47 2 8 8 19 8 42 -2 40 -18 39 -29 -1 -30 -18 -1 17 -10 77 -20 61 -11
124 -18 140 -17 17 2 -17 10 -75 17 -67 9 -98 16 -85 21 19 7 19 7 -2 14 -13
4 -23 12 -23 17 0 5 -9 9 -20 9 -11 0 -20 5 -20 10 0 6 33 10 80 10 73 0 80 2
80 20 0 17 7 20 50 20 43 0 50 -3 50 -20 0 -11 -4 -20 -10 -20 -16 0 -12 -70
5 -86 8 -9 35 -16 60 -17 25 -1 45 -5 45 -9 0 -5 17 -8 38 -8 21 0 43 -5 50
-12 9 -9 12 -9 12 0 0 7 16 12 40 12 22 0 40 -4 40 -9 0 -5 8 -11 18 -14 10
-2 2 -7 -21 -12 -24 -4 -54 -3 -83 5 -24 7 -47 10 -50 7 -3 -3 14 -11 38 -17
23 -7 51 -16 61 -21 20 -11 57 -3 57 12 0 5 5 9 10 9 6 0 10 -7 10 -15 0 -8 4
-15 8 -15 4 0 8 10 8 23 2 209 4 227 24 227 18 0 20 7 20 74 0 41 5 78 10 81
6 3 10 16 10 28 0 18 -2 19 -10 7 -8 -12 -10 -11 -10 8 0 18 -6 22 -30 22 -16
0 -30 5 -30 10 0 6 -12 10 -26 10 -45 0 -56 22 -54 103 3 94 3 97 -16 97 -12
0 -14 -5 -9 -17 10 -24 23 -170 24 -261 1 -53 -3 -78 -14 -88 -13 -14 -17 -14
-30 0 -11 10 -15 36 -15 90 0 44 -4 76 -10 76 -6 0 -10 -35 -10 -86 0 -107 -6
-114 -94 -114 -37 0 -66 -4 -66 -10 0 -5 -22 -10 -50 -10 -43 0 -50 3 -50 20
0 16 7 20 30 20 21 0 30 5 30 16 0 20 -24 44 -44 44 -9 0 -16 5 -16 10 0 16
46 12 60 -5 7 -8 20 -15 29 -14 13 0 14 1 1 6 -45 17 -50 31 -52 162 l-2 126
-6 -105 c-3 -58 -7 -95 -8 -84 -1 12 -9 25 -18 28 -15 6 -16 21 -10 139 4 72
11 134 15 137 4 3 7 19 8 35 1 17 -1 24 -4 18 -6 -17 -110 -18 -115 -2 -3 8
-32 11 -81 11 l-77 -1 0 30 c0 16 -4 29 -10 29 -5 0 -10 18 -10 40 0 22 -4 40
-10 40 -5 0 -10 -9 -10 -20 0 -11 -4 -20 -10 -20 -5 0 -10 9 -10 20 0 13 -7
20 -20 20 -27 0 -25 18 3 23 12 2 -16 5 -63 5 -59 1 -80 -1 -70 -8z m230 -250
c0 -27 5 -50 10 -50 6 0 10 -9 10 -20 0 -13 -7 -20 -20 -20 -19 0 -20 -7 -20
-160 0 -153 -1 -160 -20 -160 -13 0 -20 7 -20 20 0 11 5 20 10 20 6 0 10 47
10 120 0 73 -4 120 -10 120 -5 0 -10 9 -10 20 0 11 -4 20 -10 20 -5 0 -10 9
-10 20 0 11 5 20 10 20 6 0 10 -9 10 -20 0 -11 5 -20 10 -20 6 0 10 18 10 40
0 22 5 40 10 40 6 0 10 14 10 30 0 17 5 30 10 30 6 0 10 -22 10 -50z m-160
-120 c0 -23 -4 -30 -20 -30 -16 0 -20 7 -20 30 0 23 4 30 20 30 16 0 20 -7 20
-30z m60 -30 c0 -33 4 -60 10 -60 6 0 10 -18 10 -40 0 -22 -4 -40 -10 -40 -6
0 -10 -27 -10 -60 0 -33 -4 -60 -10 -60 -6 0 -10 60 -10 160 0 100 4 160 10
160 6 0 10 -27 10 -60z m300 -20 c0 -73 -2 -80 -20 -80 -18 0 -20 7 -20 80 0
73 2 80 20 80 18 0 20 -7 20 -80z m420 -170 c0 -40 -4 -70 -10 -70 -6 0 -10
30 -10 70 0 40 4 70 10 70 6 0 10 -30 10 -70z m-780 -40 c0 -23 -4 -30 -20
-30 -16 0 -20 7 -20 30 0 23 4 30 20 30 16 0 20 -7 20 -30z m820 -140 c0 -16
-4 -30 -10 -30 -5 0 -10 -22 -10 -50 0 -27 -4 -50 -10 -50 -6 0 -10 33 -10 80
0 73 2 80 20 80 16 0 20 -7 20 -30z"/>
<path d="M4575 6451 c3 -5 -3 -11 -12 -14 -10 -2 -2 -4 19 -3 28 1 34 4 26 14
-12 14 -42 17 -33 3z"/>
<path d="M3866 6399 c-3 -17 -7 -66 -7 -108 -1 -42 -4 -64 -6 -48 l-4 27 -155
0 c-151 0 -154 0 -154 22 0 12 -2 19 -5 16 -12 -12 -17 -198 -6 -198 7 0 11
-24 11 -60 0 -33 -4 -60 -10 -60 -6 0 -10 -27 -10 -60 0 -33 4 -60 10 -60 6 0
10 -18 10 -40 l0 -40 71 0 70 0 -2 -80 c-2 -79 4 -109 17 -76 5 13 21 16 85
16 46 0 79 -4 79 -10 0 -5 9 -10 20 -10 11 0 20 5 20 10 0 6 27 10 60 10 33 0
60 -4 60 -10 0 -5 15 -11 33 -12 17 -1 -8 -5 -58 -8 -85 -6 -83 -6 53 -8 79
-1 141 2 138 6 -3 5 -18 8 -33 7 -15 -1 -20 0 -10 2 9 2 17 13 17 24 0 16 -7
19 -40 19 -33 0 -40 3 -40 20 0 15 -7 20 -24 20 -14 0 -28 5 -31 11 -4 5 -12
8 -18 6 -7 -3 -23 5 -36 17 -17 15 -25 17 -28 9 -3 -7 -12 -13 -21 -13 -15 0
-15 2 -2 11 11 8 12 12 3 15 -9 4 -11 40 -9 137 2 73 2 113 0 90 -4 -29 -10
-43 -20 -43 -11 0 -14 16 -14 73 0 39 -3 82 -6 95 -4 13 -2 22 5 22 7 0 12
-23 13 -57 1 -50 2 -52 5 -15 2 24 9 42 16 42 8 0 11 18 8 62 -3 47 -6 55 -10
34 -3 -16 -12 -31 -18 -34 -10 -3 -13 23 -12 110 1 72 4 104 9 88 7 -21 8 -19
9 18 1 51 -23 59 -33 11z m-26 -329 c0 -73 -4 -120 -10 -120 -6 0 -10 47 -10
120 0 73 4 120 10 120 6 0 10 -47 10 -120z m17 -7 c-3 -10 -5 -2 -5 17 0 19 2
27 5 18 2 -10 2 -26 0 -35z m127 -344 c8 -12 19 -18 25 -14 6 3 11 1 11 -4 0
-6 -21 -11 -50 -11 -38 0 -50 4 -50 15 0 18 12 19 29 3 11 -11 12 -9 6 10 -8
28 9 29 29 1z"/>
<path d="M3932 6405 c0 -16 2 -22 5 -12 2 9 2 23 0 30 -3 6 -5 -1 -5 -18z"/>
<path d="M4200 6420 c0 -5 5 -10 10 -10 6 0 10 5 10 10 0 6 -4 10 -10 10 -5 0
-10 -4 -10 -10z"/>
<path d="M4500 6411 c0 -11 -6 -21 -12 -24 -8 -2 -9 -8 -4 -13 5 -5 11 -4 13
4 3 8 28 12 71 13 55 0 63 2 42 10 -14 6 -34 9 -46 6 -11 -2 -26 2 -32 10 -18
19 -32 16 -32 -6z"/>
<path d="M4660 6415 c0 -9 5 -15 11 -13 6 2 11 8 11 13 0 5 -5 11 -11 13 -6 2
-11 -4 -11 -13z"/>
<path d="M3441 6394 c0 -11 3 -14 6 -6 3 7 2 16 -1 19 -3 4 -6 -2 -5 -13z"/>
<path d="M3464 6395 c-3 -8 1 -22 11 -31 22 -23 32 -9 11 15 -17 19 -17 20 16
24 l33 4 -33 1 c-21 1 -35 -3 -38 -13z"/>
<path d="M4640 6375 c0 -14 5 -25 11 -25 5 0 7 5 3 11 -5 8 1 10 20 7 33 -7
34 9 0 22 -34 13 -34 13 -34 -15z"/>
<path d="M4220 6270 c0 -73 4 -120 10 -120 6 0 10 47 10 120 0 73 -4 120 -10
120 -6 0 -10 -47 -10 -120z"/>
<path d="M3913 6305 c0 -33 2 -45 4 -27 2 18 2 45 0 60 -2 15 -4 0 -4 -33z"/>
<path d="M3444 6090 l0 -265 6 199 c3 109 2 228 -1 265 -3 36 -6 -53 -5 -199z"/>
<path d="M4170 6332 c-12 -14 -15 -58 -16 -262 l0 -245 5 230 c6 210 7 226 19
183 7 -27 14 -48 17 -48 3 0 5 36 5 80 0 44 -3 80 -7 80 -5 -1 -15 -8 -23 -18z"/>
<path d="M4700 6310 c0 -11 5 -20 10 -20 6 0 10 9 10 20 0 11 -4 20 -10 20 -5
0 -10 -9 -10 -20z"/>
<path d="M3218 6293 c-10 -2 -18 -9 -18 -14 0 -5 -6 -9 -14 -9 -8 0 -18 -5
-22 -12 -4 -7 -3 -8 4 -4 7 4 12 3 12 -3 0 -5 -6 -12 -12 -14 -8 -4 -7 -6 4
-6 9 -1 18 -7 21 -13 2 -7 8 1 12 17 16 64 20 43 25 -140 l6 -190 2 198 c1
108 1 196 0 196 -2 -1 -11 -3 -20 -6z"/>
<path d="M4961 6238 l1 -33 8 30 c6 27 8 28 15 10 10 -24 24 -35 45 -35 10 1
9 4 -5 12 -11 6 -26 20 -33 30 -20 27 -32 22 -31 -14z"/>
<path d="M3492 6230 c0 -19 2 -27 5 -17 2 9 2 25 0 35 -3 9 -5 1 -5 -18z"/>
<path d="M4751 6244 c0 -11 3 -14 6 -6 3 7 2 16 -1 19 -3 4 -6 -2 -5 -13z"/>
<path d="M3121 6217 c-6 -8 -8 -17 -4 -20 12 -13 22 -7 20 13 -2 24 -1 24 -16
7z"/>
<path d="M3160 6179 c0 -6 -6 -9 -12 -6 -10 3 -12 -13 -10 -69 2 -46 0 -74 -7
-74 -6 0 -11 29 -13 67 -2 46 -7 68 -17 71 -8 3 -11 0 -7 -7 4 -6 2 -11 -3
-11 -6 0 -11 -10 -10 -22 0 -22 1 -22 8 -3 7 18 9 17 14 -10 11 -57 7 -97 -9
-91 -11 4 -14 -5 -14 -44 0 -43 3 -50 20 -50 13 0 20 -7 20 -20 0 -11 -4 -20
-10 -20 -5 0 -10 5 -10 10 0 6 -4 10 -10 10 -5 0 -10 -18 -10 -40 0 -22 5 -40
10 -40 6 0 10 5 10 10 0 6 5 10 10 10 6 0 10 -7 10 -16 0 -16 23 -44 36 -44 4
0 5 73 2 163 -3 89 -2 149 1 133 8 -39 29 -44 37 -10 5 18 3 29 -4 32 -7 2
-12 21 -12 43 0 21 -4 39 -10 39 -5 0 -10 -5 -10 -11z m-43 -221 c-3 -8 -6 -5
-6 6 -1 11 2 17 5 13 3 -3 4 -12 1 -19z"/>
<path d="M3468 6145 c-11 -60 -10 -205 2 -205 6 0 11 17 11 38 l2 37 7 -35 7
-35 2 32 c0 17 7 34 14 37 10 5 10 7 0 12 -7 3 -14 24 -15 47 l-1 42 -6 -40
c-5 -34 -6 -28 -11 35 -5 69 -6 72 -12 35z"/>
<path d="M4980 6153 c0 -22 2 -25 10 -13 13 20 13 40 0 40 -5 0 -10 -12 -10
-27z"/>
<path d="M5087 6131 c3 -12 9 -21 14 -21 14 0 11 16 -5 29 -12 10 -13 8 -9 -8z"/>
<path d="M3063 6075 c0 -33 2 -45 4 -27 2 18 2 45 0 60 -2 15 -4 0 -4 -33z"/>
<path d="M3944 5975 c0 -77 2 -107 3 -67 2 40 2 103 0 140 -2 37 -3 4 -3 -73z"/>
<path d="M4193 5950 c0 -91 2 -146 4 -122 2 23 8 42 14 42 5 0 9 36 9 80 0 44
-4 80 -9 80 -6 0 -12 19 -14 43 -2 23 -4 -32 -4 -123z"/>
<path d="M5020 6071 c0 -23 5 -41 10 -41 6 0 10 15 10 34 0 19 -4 38 -10 41
-6 4 -10 -10 -10 -34z"/>
<path d="M5115 6070 c-8 -37 10 -63 36 -55 12 4 19 1 19 -6 0 -7 3 -10 6 -6 6
6 -42 97 -51 97 -2 0 -6 -14 -10 -30z m35 -31 c0 -5 -4 -9 -10 -9 -5 0 -10 7
-10 16 0 8 5 12 10 9 6 -3 10 -10 10 -16z"/>
<path d="M4723 6025 c0 -38 2 -53 4 -32 2 20 2 52 0 70 -2 17 -4 1 -4 -38z"/>
<path d="M4961 6016 c-1 -50 3 -76 8 -70 6 5 7 37 2 79 l-8 70 -2 -79z"/>
<path d="M5180 5975 c0 -8 4 -15 10 -15 5 0 7 7 4 15 -4 8 -8 15 -10 15 -2 0
-4 -7 -4 -15z"/>
<path d="M3180 5933 c0 -13 5 -23 10 -23 6 0 10 -18 10 -40 0 -22 -4 -40 -10
-40 -16 0 -12 -37 5 -44 9 -3 15 -18 15 -35 0 -17 6 -34 14 -38 21 -12 -2 -83
-26 -83 -13 0 -18 -8 -18 -30 0 -17 5 -30 13 -31 53 -3 171 1 189 7 13 3 32
13 43 21 19 14 17 15 -20 10 -22 -3 -32 -3 -23 -1 9 3 16 14 15 25 -1 21 -6
23 -27 9 -13 -9 -13 -10 0 -11 21 -1 -19 -17 -45 -18 -24 -1 -72 55 -77 90 -1
13 -7 27 -12 31 -5 3 -11 54 -14 112 -3 58 -9 106 -13 106 -5 0 -9 -6 -9 -12
0 -9 -4 -8 -10 2 -8 12 -10 11 -10 -7z m90 -288 c14 -16 10 -18 -14 -9 -9 3
-16 10 -16 15 0 14 16 11 30 -6z"/>
<path d="M3014 5869 c-12 -32 -17 -59 -13 -59 9 0 44 109 37 115 -2 2 -13 -23
-24 -56z"/>
<path d="M4920 5840 c0 -5 -7 -10 -15 -10 -8 0 -15 -4 -15 -9 0 -5 -8 -12 -17
-14 -10 -3 -3 -5 15 -6 22 -1 32 4 32 14 0 8 7 15 15 15 8 0 15 5 15 10 0 6
-7 10 -15 10 -8 0 -15 -4 -15 -10z"/>
<path d="M3460 5787 c1 -30 1 -31 15 -13 19 25 19 32 0 40 -11 4 -15 -2 -15
-27z"/>
<path d="M3043 5785 c-13 -13 -23 -31 -23 -40 0 -8 -4 -15 -10 -15 -5 0 -10
-4 -10 -10 0 -5 9 -10 20 -10 17 0 20 -7 20 -40 0 -22 -4 -40 -10 -40 -5 0
-10 14 -10 30 0 17 -4 30 -10 30 -5 0 -10 -4 -10 -10 0 -5 -8 -10 -19 -10 -15
0 -19 -11 -24 -67 -7 -69 1 -173 12 -173 3 0 4 22 3 50 l-4 50 36 0 c20 0 36
5 36 11 0 8 4 8 13 2 21 -18 105 -22 118 -7 9 11 7 14 -10 14 -17 0 -21 6 -21
30 0 17 -4 30 -10 30 -6 0 -10 37 -10 90 0 83 -1 90 -20 90 -11 0 -20 5 -20
10 0 16 -13 11 -37 -15z m43 -109 c21 -21 17 -46 -6 -46 -16 0 -20 7 -20 30 0
34 5 37 26 16z"/>
<path d="M4140 5769 c0 -5 5 -7 10 -4 6 3 10 8 10 11 0 2 -4 4 -10 4 -5 0 -10
-5 -10 -11z"/>
<path d="M6130 5662 c-517 -58 -848 -99 -852 -106 -4 -6 -8 -46 -8 -88 l0 -78
78 -39 c44 -22 93 -52 110 -66 28 -24 32 -33 32 -78 0 -96 -57 -182 -165 -252
-110 -71 -189 -80 -425 -48 -75 11 -185 17 -275 17 -160 -1 -201 -9 -365 -70
-111 -41 -222 -40 -350 3 -202 69 -390 88 -570 57 -150 -25 -272 -29 -355 -9
-175 40 -300 148 -327 280 -8 42 -8 58 2 70 11 13 9 15 -11 15 -60 1 -1329
-145 -1327 -152 3 -7 418 -210 918 -448 102 -48 302 -145 444 -214 143 -70
269 -129 281 -132 21 -5 23 0 39 88 10 51 20 136 23 188 2 52 6 100 8 107 7
21 64 -6 71 -33 3 -13 10 -24 15 -24 12 0 12 -27 0 -32 -4 -1 -10 -27 -13 -56
-4 -38 -2 -52 7 -49 7 3 10 -6 8 -27 l-3 -31 11 35 c8 25 8 35 0 38 -13 4 -15
82 -2 82 5 0 12 -26 16 -58 3 -31 14 -81 24 -110 10 -28 14 -52 9 -52 -4 0 -8
1 -8 3 0 1 -7 20 -15 42 -9 27 -14 33 -15 18 0 -12 9 -38 21 -57 11 -19 18
-40 14 -46 -3 -5 1 -10 10 -10 12 0 15 6 9 22 -5 17 3 13 42 -19 98 -82 192
-109 347 -101 96 5 144 22 214 75 47 36 101 123 132 213 35 99 51 123 94 144
40 18 65 20 100 7 42 -16 66 -51 92 -135 56 -184 169 -286 339 -307 74 -9 106
-7 196 18 98 27 220 109 220 148 0 8 4 15 9 15 6 0 10 8 10 18 0 9 7 44 15 77
9 33 16 79 16 103 0 31 4 42 15 42 8 0 15 7 15 15 0 14 48 45 70 45 5 0 10
-22 10 -49 0 -28 3 -52 8 -55 4 -2 39 15 77 39 39 24 228 139 420 257 762 468
1347 827 1353 833 13 12 -108 0 -858 -83z"/>
<path d="M2946 5734 c-4 -9 -4 -19 -1 -22 2 -3 7 3 11 12 4 9 4 19 1 22 -2 3
-7 -3 -11 -12z"/>
<path d="M4120 5738 c0 -9 -6 -19 -12 -21 -7 -3 1 -6 19 -6 26 -1 31 3 30 19
-1 22 -17 28 -17 8 0 -9 -4 -8 -10 2 -8 13 -10 13 -10 -2z"/>
<path d="M3180 5720 c0 -5 5 -10 10 -10 6 0 10 5 10 10 0 6 -4 10 -10 10 -5 0
-10 -4 -10 -10z"/>
<path d="M3500 5700 c0 -5 5 -10 10 -10 6 0 10 5 10 10 0 6 -4 10 -10 10 -5 0
-10 -4 -10 -10z"/>
<path d="M3438 5689 c-3 -8 0 -30 6 -49 9 -32 10 -33 13 -10 5 32 -11 80 -19
59z"/>
<path d="M3180 5673 c0 -13 5 -23 10 -23 13 0 13 11 0 30 -8 12 -10 11 -10 -7z"/>
<path d="M2942 5645 c0 -16 2 -22 5 -12 2 9 2 23 0 30 -3 6 -5 -1 -5 -18z"/>
<path d="M3613 5633 c9 -9 20 -13 24 -9 4 4 1 11 -7 16 -25 16 -35 11 -17 -7z"/>
<path d="M4740 5640 c0 -5 5 -10 10 -10 6 0 10 5 10 10 0 6 -4 10 -10 10 -5 0
-10 -4 -10 -10z"/>
<path d="M3538 5632 c-13 -5 -15 -11 -7 -22 8 -11 12 -12 15 -3 4 8 13 9 29 3
15 -6 27 -6 30 0 4 6 -1 10 -9 10 -9 0 -16 5 -16 10 0 11 -17 12 -42 2z"/>
<path d="M4658 5633 c12 -2 32 -2 45 0 12 2 2 4 -23 4 -25 0 -35 -2 -22 -4z"/>
<path d="M3720 5621 c-23 -3 -24 -4 -5 -12 14 -5 4 -8 -35 -9 -30 -2 -68 -6
-85 -10 -18 -5 3 -6 50 -3 99 8 127 14 111 28 -6 6 -22 8 -36 6z"/>
<path d="M3790 5610 c-11 -7 -2 -10 29 -10 48 0 51 4 11 13 -14 3 -32 2 -40
-3z"/>
<path d="M4238 5613 c12 -2 30 -2 40 0 9 3 -1 5 -23 4 -22 0 -30 -2 -17 -4z"/>
<path d="M4317 5608 c-6 -4 15 -7 48 -7 64 1 65 5 2 11 -20 2 -43 0 -50 -4z"/>
<path d="M3450 5590 c-12 -8 -12 -10 5 -10 11 0 27 5 35 10 12 8 12 10 -5 10
-11 0 -27 -5 -35 -10z"/>
<path d="M4458 5593 c6 -2 18 -2 25 0 6 3 1 5 -13 5 -14 0 -19 -2 -12 -5z"/>
<path d="M3410 5560 c0 -6 16 -8 43 -4 58 9 59 14 4 14 -26 0 -47 -5 -47 -10z"/>
<path d="M5177 5553 c-4 -3 -7 -16 -6 -27 0 -12 3 -15 6 -9 2 7 4 15 3 19 -1
4 4 11 12 15 7 5 8 9 2 9 -6 0 -14 -3 -17 -7z"/>
<path d="M3220 5540 l-25 -8 25 0 c14 0 34 3 45 8 l20 9 -20 -1 c-11 0 -31 -4
-45 -8z"/>
<path d="M4828 5533 c7 -3 16 -2 19 1 4 3 -2 6 -13 5 -11 0 -14 -3 -6 -6z"/>
<path d="M4880 5520 c36 -11 52 -11 45 0 -3 6 -21 10 -38 9 -31 -1 -31 -1 -7
-9z"/>
<path d="M3710 5509 c-340 -35 -704 -136 -914 -253 -73 -41 -78 -53 -47 -115
42 -81 144 -146 279 -177 63 -15 66 -14 141 11 538 186 1197 190 1745 11 60
-20 125 -36 145 -36 45 0 139 24 198 50 58 25 137 108 159 166 l18 46 -25 19
c-13 10 -54 34 -90 54 -202 107 -517 186 -873 220 -173 16 -591 18 -736 4z"/>
<path d="M3110 5490 l-35 -7 40 -2 c22 0 47 4 55 9 12 8 11 9 -5 9 -11 -1 -36
-5 -55 -9z"/>
<path d="M3009 5453 c-8 -9 -2 -10 28 -1 50 13 55 19 14 16 -18 -1 -37 -8 -42
-15z"/>
<path d="M5037 4550 c3 -30 7 -57 9 -59 7 -8 2 64 -6 89 -6 16 -7 6 -3 -30z"/>
<path d="M5021 4514 c0 -11 3 -14 6 -6 3 7 2 16 -1 19 -3 4 -6 -2 -5 -13z"/>
<path d="M5018 4463 c-3 -10 -1 -28 4 -40 9 -26 2 -48 -24 -82 -10 -13 -18
-33 -17 -45 0 -11 3 -15 6 -8 7 18 21 15 28 -8 9 -29 28 -25 23 5 -3 14 -1 25
3 25 5 0 9 7 9 15 0 9 -6 12 -15 9 -8 -4 -15 -1 -15 5 0 6 5 11 11 11 7 0 10
14 7 35 -4 36 6 36 15 0 3 -11 5 0 6 25 0 32 -2 41 -9 30 -8 -12 -10 -11 -10
7 0 27 -17 39 -22 16z"/>
<path d="M3096 4438 c-8 -32 -7 -45 3 -30 6 10 10 3 15 -22 4 -20 11 -36 16
-36 13 0 6 49 -13 83 -14 28 -15 28 -21 5z"/>
<path d="M4990 4404 c0 -5 -18 -30 -40 -54 -40 -46 -47 -60 -30 -60 6 0 10 4
10 8 0 5 7 17 16 28 13 16 15 16 10 2 -3 -10 -2 -18 2 -18 10 0 46 90 38 97
-3 4 -6 2 -6 -3z"/>
<path d="M5072 4330 c0 -14 2 -19 5 -12 2 6 2 18 0 25 -3 6 -5 1 -5 -13z"/>
<path d="M3197 4313 c-4 -3 1 -12 11 -20 16 -13 15 -14 -5 -10 -13 3 -23 1
-23 -4 0 -12 37 -12 45 0 3 5 0 13 -6 17 -8 4 -7 9 2 15 11 7 11 9 -2 9 -9 0
-19 -3 -22 -7z"/>
<path d="M4931 4288 c-7 -11 -10 -23 -7 -26 3 -3 6 0 6 7 0 7 3 10 8 8 4 -3
12 1 19 8 9 10 9 14 -1 18 -7 3 -18 -4 -25 -15z"/>
<path d="M5061 4278 c-1 -16 4 -28 9 -28 12 0 12 8 0 35 -8 18 -9 17 -9 -7z"/>
<path d="M3057 4260 c-4 -19 -11 -57 -17 -84 -5 -27 -6 -55 -1 -63 6 -11 11 2
16 43 4 33 11 64 16 70 4 5 5 23 0 40 l-8 29 -6 -35z"/>
<path d="M3100 4280 c0 -5 5 -10 10 -10 6 0 10 5 10 10 0 6 -4 10 -10 10 -5 0
-10 -4 -10 -10z"/>
<path d="M4896 4234 c-4 -20 -5 -38 -3 -40 3 -3 8 11 11 32 4 20 5 38 3 40 -3
3 -8 -11 -11 -32z"/>
<path d="M3213 4248 c4 -12 1 -18 -9 -18 -8 0 -23 -7 -31 -16 -14 -13 -14 -17
-2 -26 11 -7 11 -11 2 -15 -7 -2 -13 -11 -13 -19 0 -8 -9 -24 -20 -36 -18 -19
-20 -36 -20 -135 0 -69 -4 -113 -10 -113 -5 0 -10 -18 -10 -40 0 -22 -5 -40
-11 -40 -7 0 -10 55 -7 177 2 97 2 169 0 160 -2 -9 -8 -17 -13 -17 -5 0 -9
-33 -9 -72 0 -49 -3 -68 -10 -58 -6 9 -8 -14 -7 -68 1 -45 5 -82 10 -82 4 0 7
-9 7 -20 0 -11 -4 -20 -10 -20 -15 0 -12 -57 3 -64 10 -5 10 -7 0 -12 -19 -8
-17 -131 1 -150 8 -8 31 -14 50 -14 20 0 36 -4 36 -10 0 -5 -4 -10 -10 -10 -5
0 -10 -22 -10 -50 0 -27 5 -50 10 -50 6 0 10 4 10 9 0 5 9 11 20 14 17 4 19 1
14 -21 -6 -26 -6 -26 9 -7 9 11 17 25 17 32 0 6 4 13 9 15 4 2 11 13 15 25 6
18 4 22 -8 17 -9 -3 -16 -14 -16 -23 0 -24 -7 -29 -35 -23 -31 5 -34 46 -7 71
10 9 25 37 32 63 10 32 17 43 23 35 5 -7 7 0 3 19 -8 49 7 51 21 2 l12 -43 -5
45 c-4 41 -3 43 10 27 13 -17 15 -16 21 12 3 17 3 36 -1 43 -6 10 -5 10 7 1
12 -9 14 -1 15 58 1 38 -2 69 -7 69 -5 0 -9 -13 -9 -29 0 -18 -6 -31 -16 -35
-13 -5 -14 -3 -7 6 15 18 22 137 9 141 -8 3 -8 16 -1 43 6 21 8 73 4 114 l-6
75 -3 -90 c-2 -69 -4 -82 -10 -55 -5 23 -8 28 -9 13 -1 -16 -7 -23 -22 -23
-16 0 -19 4 -13 18 4 9 9 42 11 72 2 30 9 65 15 77 8 17 7 26 -7 45 -11 14
-15 17 -12 6z m-53 -178 c0 -30 4 -40 16 -40 8 0 22 -6 30 -14 16 -17 19 -66
4 -66 -5 0 -10 -18 -10 -41 0 -24 4 -38 10 -34 15 9 12 -8 -7 -51 l-18 -39 -3
93 c-3 104 -22 127 -22 26 0 -43 -5 -70 -14 -80 -20 -19 -26 -18 -26 6 0 11 5
20 10 20 6 0 10 50 10 130 0 80 4 130 10 130 6 0 10 -18 10 -40z m81 -243 c-6
-6 -11 -21 -11 -33 0 -13 -4 -26 -10 -29 -14 -9 -13 4 7 61 11 32 19 43 21 30
2 -10 -1 -23 -7 -29z m-45 -115 c-11 -10 -15 4 -8 28 l7 25 3 -23 c2 -13 1
-26 -2 -30z m-16 -82 c0 -38 -2 -40 -30 -40 -28 0 -30 2 -30 40 0 38 2 40 30
40 28 0 30 -2 30 -40z"/>
<path d="M4910 4185 c-7 -36 -10 -69 -6 -72 3 -4 6 6 6 21 0 14 7 29 15 32 10
4 15 20 15 45 0 60 -16 46 -30 -26z"/>
<path d="M3251 4214 c0 -11 3 -14 6 -6 3 7 2 16 -1 19 -3 4 -6 -2 -5 -13z"/>
<path d="M5087 4205 c-4 -8 -2 -17 3 -20 6 -4 10 3 10 14 0 25 -6 27 -13 6z"/>
<path d="M3092 4180 c0 -14 2 -19 5 -12 2 6 2 18 0 25 -3 6 -5 1 -5 -13z"/>
<path d="M3243 4150 c0 -25 2 -35 4 -22 2 12 2 32 0 45 -2 12 -4 2 -4 -23z"/>
<path d="M5000 4150 c0 -22 -4 -40 -10 -40 -5 0 -10 -9 -10 -20 0 -11 -4 -20
-10 -20 -6 0 -10 -30 -10 -70 0 -40 4 -70 10 -70 15 0 12 -29 -4 -46 -20 -19
-26 -18 -26 5 0 11 6 21 12 23 21 7 -17 38 -46 38 -26 0 -26 -1 -26 -80 0 -44
-4 -80 -8 -80 -5 0 -9 -13 -9 -29 0 -24 3 -27 14 -16 7 8 13 21 13 29 0 13 13
16 70 16 l70 0 -5 117 c-3 79 -9 119 -17 125 -10 6 -10 10 1 17 8 5 15 35 18
75 5 57 3 66 -11 66 -12 0 -16 -10 -16 -40z m20 -170 c0 -5 -4 -10 -10 -10 -5
0 -10 5 -10 10 0 6 5 10 10 10 6 0 10 -4 10 -10z"/>
<path d="M5052 4170 c0 -14 2 -19 5 -12 2 6 2 18 0 25 -3 6 -5 1 -5 -13z"/>
<path d="M4931 4134 c0 -11 3 -14 6 -6 3 7 2 16 -1 19 -3 4 -6 -2 -5 -13z"/>
<path d="M3100 4120 c0 -5 5 -10 10 -10 6 0 10 5 10 10 0 6 -4 10 -10 10 -5 0
-10 -4 -10 -10z"/>
<path d="M5121 4055 c0 -22 6 -62 14 -90 l15 -50 -6 63 c-3 35 -10 76 -14 90
-7 24 -8 23 -9 -13z"/>
<path d="M5080 4040 c0 -5 5 -10 10 -10 6 0 10 5 10 10 0 6 -4 10 -10 10 -5 0
-10 -4 -10 -10z"/>
<path d="M4410 4030 c0 -5 7 -7 15 -4 8 4 15 8 15 10 0 2 -7 4 -15 4 -8 0 -15
-4 -15 -10z"/>
<path d="M3357 4021 c-17 -6 -17 -8 -3 -20 13 -11 17 -11 22 3 8 21 4 25 -19
17z"/>
<path d="M4345 4020 c4 -6 11 -8 16 -5 14 9 11 15 -7 15 -8 0 -12 -5 -9 -10z"/>
<path d="M4480 4010 c0 -11 2 -20 4 -20 2 0 6 9 9 20 3 11 1 20 -4 20 -5 0 -9
-9 -9 -20z"/>
<path d="M4777 4023 c-15 -15 -3 -103 15 -103 5 0 4 9 -3 21 -6 12 -8 36 -4
55 6 34 4 40 -8 27z"/>
<path d="M3012 3995 c0 -16 2 -22 5 -12 2 9 2 23 0 30 -3 6 -5 -1 -5 -18z"/>
<path d="M3303 4007 c17 -14 17 -16 -4 -31 -13 -8 -19 -19 -15 -23 4 -4 13 0
20 10 16 21 26 22 26 1 0 -9 6 -14 13 -11 22 7 13 27 -23 48 -19 12 -27 14
-17 6z"/>
<path d="M3643 3995 c-18 -8 -33 -17 -33 -20 0 -3 9 -1 19 5 27 14 31 13 31
-10 0 -13 7 -20 20 -20 25 0 25 9 3 26 -16 12 -16 15 -3 24 22 14 0 12 -37 -5z"/>
<path d="M3786 4002 c-4 -7 7 -11 26 -10 18 0 49 -4 68 -7 19 -4 33 -5 30 -2
-5 6 -33 13 -91 24 -15 3 -29 0 -33 -5z"/>
<path d="M4238 3987 c-21 -11 -36 -22 -34 -24 5 -5 86 35 86 42 0 9 -14 4 -52
-18z"/>
<path d="M4828 4003 c6 -2 12 -11 12 -19 0 -8 5 -14 11 -14 6 0 8 7 5 16 -3 9
-6 18 -6 20 0 2 -8 4 -17 3 -11 0 -13 -3 -5 -6z"/>
<path d="M4865 4000 c3 -5 8 -10 11 -10 2 0 4 5 4 10 0 6 -5 10 -11 10 -5 0
-7 -4 -4 -10z"/>
<path d="M4300 3990 c-12 -8 -10 -10 8 -10 13 0 20 4 17 10 -7 12 -6 12 -25 0z"/>
<path d="M4410 3990 c-8 -5 -25 -10 -37 -10 -16 0 -21 -4 -17 -15 4 -10 19
-15 48 -14 22 1 33 3 23 6 -9 2 -15 8 -12 13 7 11 35 2 54 -17 11 -12 11 -16
-5 -28 -18 -13 -18 -14 -1 -15 9 0 17 -7 17 -15 0 -8 3 -14 8 -14 22 4 32 -3
32 -23 -1 -21 -2 -22 -14 -5 -13 17 -42 25 -31 8 3 -6 -2 -14 -11 -19 -12 -7
-5 -10 30 -14 26 -3 56 -14 68 -24 31 -28 65 -111 74 -179 6 -53 8 -57 15 -30
12 49 17 135 8 135 -5 0 -9 -9 -9 -20 0 -34 -19 -22 -26 18 -4 20 -12 41 -18
45 -8 6 -7 10 2 14 6 2 12 16 12 30 0 29 25 60 34 40 3 -6 4 -1 3 13 -2 20 -7
24 -26 22 -34 -5 -51 -26 -51 -62 0 -18 -4 -29 -10 -25 -5 3 -10 19 -10 36 0
16 -4 29 -10 29 -5 0 -10 9 -10 20 0 11 5 20 10 20 6 0 10 18 10 40 0 38 -2
40 -31 40 -18 0 -28 -4 -24 -10 4 -6 16 -8 28 -4 22 7 22 6 3 -15 -17 -19 -21
-20 -36 -6 -9 8 -21 15 -27 15 -6 0 -16 7 -23 15 -15 17 -20 18 -40 5z"/>
<path d="M3560 3975 c0 -16 27 -32 37 -22 5 6 -21 37 -31 37 -3 0 -6 -7 -6
-15z"/>
<path d="M3716 3982 c-3 -5 9 -9 26 -10 17 0 34 -6 38 -12 4 -6 15 -8 26 -4
16 6 16 4 -3 -13 -23 -21 -31 -53 -13 -53 6 0 10 5 10 11 0 7 11 9 30 6 22 -5
30 -3 30 7 0 8 -6 17 -12 19 -7 3 -4 6 8 6 12 1 31 -8 44 -19 28 -24 31 -25
23 -4 -3 9 0 20 7 24 26 16 -2 30 -58 29 -31 -1 -70 4 -85 10 -34 13 -64 14
-71 3z"/>
<path d="M3490 3941 c-7 -21 -10 -45 -7 -52 3 -8 6 0 7 16 l2 30 7 -30 c7 -27
8 -26 12 18 5 61 -4 69 -21 18z"/>
<path d="M3372 3950 c0 -14 2 -19 5 -12 2 6 2 18 0 25 -3 6 -5 1 -5 -13z"/>
<path d="M4240 3955 c0 -15 6 -17 40 -12 22 3 40 3 40 0 0 -17 -35 -33 -74
-33 -25 0 -46 -4 -46 -10 0 -5 9 -10 20 -10 13 0 20 -7 20 -20 0 -16 7 -20 36
-20 30 0 35 3 30 17 -4 9 -2 19 4 23 6 4 12 15 14 24 1 10 8 21 15 26 18 11 2
19 -53 26 -40 6 -46 4 -46 -11z"/>
<path d="M3710 3941 l-45 -18 33 -8 c26 -5 36 -3 47 12 13 16 19 34 13 32 -2
0 -23 -8 -48 -18z"/>
<path d="M4820 3922 c0 -21 5 -43 11 -49 6 -6 9 -19 7 -29 -3 -17 -4 -17 -20
0 -10 10 -18 15 -18 12 0 -15 62 -197 66 -194 2 3 -5 31 -16 63 -24 70 -24 76
-5 69 13 -5 15 7 15 74 0 64 -3 81 -16 86 -24 9 -24 9 -24 -32z"/>
<path d="M4608 3943 c7 -3 16 -2 19 1 4 3 -2 6 -13 5 -11 0 -14 -3 -6 -6z"/>
<path d="M3304 3884 c3 -26 6 -67 6 -92 0 -25 3 -42 7 -38 12 12 32 86 23 86
-5 0 -11 -10 -13 -22 -3 -13 -4 -3 -3 22 0 25 5 48 10 52 6 4 4 13 -3 22 -24
29 -34 18 -27 -30z"/>
<path d="M5121 3914 c0 -11 3 -14 6 -6 3 7 2 16 -1 19 -3 4 -6 -2 -5 -13z"/>
<path d="M3000 3880 c-1 -25 -2 -63 -1 -85 0 -35 -1 -37 -9 -15 -6 20 -8 15
-8 -25 0 -39 2 -45 8 -25 4 14 8 19 9 13 2 -27 21 -11 21 17 0 17 5 30 10 30
6 0 10 9 10 20 0 11 -5 20 -11 20 -8 0 -10 12 -6 35 3 20 2 33 -3 30 -5 -3
-11 3 -13 12 -3 10 -6 -2 -7 -27z"/>
<path d="M3600 3897 c0 -17 80 -35 99 -22 6 3 14 -1 17 -9 3 -9 11 -16 16 -16
6 0 4 7 -3 16 -12 15 -11 16 9 10 12 -4 22 -3 22 2 0 10 -32 17 -117 28 -34 5
-43 3 -43 -9z"/>
<path d="M5152 3890 c0 -14 2 -19 5 -12 2 6 2 18 0 25 -3 6 -5 1 -5 -13z"/>
<path d="M5080 3880 c0 -5 5 -10 10 -10 6 0 10 -37 10 -90 0 -83 -1 -90 -20
-90 -11 0 -20 5 -20 10 0 6 -6 10 -14 10 -8 0 -17 6 -19 13 -4 10 -6 10 -6 0
-1 -8 -14 -13 -31 -13 -28 0 -30 -2 -30 -40 0 -22 -4 -40 -10 -40 -5 0 -10
-10 -9 -22 0 -22 1 -22 10 -3 7 15 8 8 5 -24 -4 -37 -1 -48 17 -64 l22 -19 3
96 c4 141 22 119 22 -26 0 -83 3 -118 10 -108 7 11 10 7 10 -17 0 -31 2 -33
33 -33 17 0 40 7 50 14 18 14 23 46 7 46 -12 0 -12 66 -1 95 8 19 8 19 19 0
10 -17 11 -11 11 35 0 46 -1 52 -11 35 -6 -11 -14 -22 -18 -25 -4 -3 -12 -14
-18 -25 -10 -17 -11 -14 -12 23 0 30 3 41 12 36 8 -5 9 8 4 50 -4 38 -3 55 4
51 5 -3 10 -12 10 -20 0 -8 5 -17 11 -21 14 -8 3 85 -12 101 -5 5 -9 20 -9 33
0 13 -6 30 -14 38 -17 16 -26 18 -26 4z"/>
<path d="M3460 3871 c0 -6 4 -13 10 -16 6 -3 7 1 4 9 -7 18 -14 21 -14 7z"/>
<path d="M3984 3862 c-16 -16 -16 -17 -1 -20 9 -2 24 3 32 11 13 13 13 16 0
21 -8 3 -22 -3 -31 -12z"/>
<path d="M3560 3861 c0 -6 -9 -11 -20 -11 -11 0 -20 -4 -20 -10 0 -5 8 -10 19
-10 12 0 20 -9 23 -25 5 -26 -12 -49 -20 -27 -2 7 -13 12 -23 12 -17 0 -20 -6
-17 -42 2 -28 7 -42 16 -40 6 1 12 -2 12 -8 0 -17 -25 -11 -40 10 -19 26 -32
25 -28 -2 2 -13 11 -22 23 -23 11 -1 27 -4 35 -6 10 -3 16 5 18 24 2 15 8 27
13 27 5 0 9 6 9 14 0 8 16 29 35 47 18 18 32 36 29 41 -3 5 7 6 23 2 l28 -6
-23 17 c-28 21 -92 32 -92 16z m44 -27 c5 -12 2 -15 -10 -10 -8 3 -20 6 -25 6
-5 0 -9 5 -9 10 0 16 37 11 44 -6z m-64 -94 c0 -5 -7 -10 -15 -10 -8 0 -15 5
-15 10 0 6 7 10 15 10 8 0 15 -4 15 -10z"/>
<path d="M4380 3860 c-20 -7 -16 -8 22 -9 26 -1 50 4 53 9 7 12 -38 12 -75 0z"/>
<path d="M3885 3850 c3 -5 11 -10 16 -10 6 0 7 5 4 10 -3 6 -11 10 -16 10 -6
0 -7 -4 -4 -10z"/>
<path d="M3432 3788 c-13 -33 -22 -62 -19 -64 2 -3 10 10 18 28 7 18 18 38 25
43 6 6 8 20 5 32 -5 18 -10 10 -29 -39z"/>
<path d="M5151 3823 c-1 -17 4 -35 9 -38 11 -7 11 9 0 45 -8 24 -8 24 -9 -7z"/>
<path d="M3731 3825 c10 -9 109 -13 109 -4 0 5 -25 9 -57 9 -31 0 -54 -2 -52
-5z"/>
<path d="M3855 3820 c3 -5 13 -10 21 -10 8 0 12 5 9 10 -3 6 -13 10 -21 10 -8
0 -12 -4 -9 -10z"/>
<path d="M3963 3823 c9 -2 23 -2 30 0 6 3 -1 5 -18 5 -16 0 -22 -2 -12 -5z"/>
<path d="M4246 3822 c-3 -4 11 -9 30 -9 19 -1 34 3 34 8 0 11 -57 12 -64 1z"/>
<path d="M4378 3823 c12 -2 30 -2 40 0 9 3 -1 5 -23 4 -22 0 -30 -2 -17 -4z"/>
<path d="M4660 3814 c0 -8 5 -12 10 -9 6 4 8 11 5 16 -9 14 -15 11 -15 -7z"/>
<path d="M4173 3813 c9 -2 23 -2 30 0 6 3 -1 5 -18 5 -16 0 -22 -2 -12 -5z"/>
<path d="M4640 3780 c0 -5 5 -10 10 -10 6 0 10 5 10 10 0 6 -4 10 -10 10 -5 0
-10 -4 -10 -10z"/>
<path d="M4702 3775 c-11 -12 -10 -15 3 -15 8 0 15 7 15 15 0 18 -2 18 -18 0z"/>
<path d="M4680 3742 c0 -5 6 -17 14 -27 13 -18 14 -18 9 8 -5 24 -23 39 -23
19z"/>
<path d="M4721 3744 c-2 -20 31 -104 40 -104 12 0 11 7 -5 38 -8 15 -19 38
-24 52 -6 14 -11 20 -11 14z"/>
<path d="M2983 3665 c0 -22 2 -30 4 -17 2 12 2 30 0 40 -3 9 -5 -1 -4 -23z"/>
<path d="M3395 3680 c-3 -5 -1 -10 4 -10 6 0 11 5 11 10 0 6 -2 10 -4 10 -3 0
-8 -4 -11 -10z"/>
<path d="M3440 3670 c0 -11 5 -20 10 -20 6 0 10 -18 10 -41 0 -24 4 -38 10
-34 6 3 10 15 10 26 0 10 5 19 10 19 6 0 10 7 10 15 0 8 -9 15 -20 15 -13 0
-20 7 -20 20 0 11 -4 20 -10 20 -5 0 -10 -9 -10 -20z"/>
<path d="M3274 3654 c-8 -25 -24 -64 -35 -86 -11 -22 -12 -44 -1 -34 4 4 7 11
8 14 1 9 13 39 31 80 8 19 12 36 9 39 -3 3 -8 -3 -12 -13z"/>
<path d="M4693 3635 c-8 -9 -14 -49 -14 -107 -1 -64 -4 -80 -8 -53 -3 22 -9
36 -12 30 -8 -14 11 -115 21 -115 5 0 12 9 15 20 7 21 25 28 25 10 0 -5 15
-10 33 -10 26 0 36 6 45 25 16 35 15 46 -3 39 -8 -4 -15 -1 -15 5 0 6 5 11 10
11 6 0 10 7 10 16 0 8 4 13 9 10 5 -4 7 3 4 14 -3 11 -10 20 -16 20 -6 0 -8
-3 -4 -6 9 -9 -19 -34 -37 -34 -9 0 -16 5 -16 10 0 6 5 10 11 10 8 0 10 15 5
46 -9 66 -19 75 -32 29 l-12 -40 -7 29 c-6 20 -4 31 3 34 13 4 17 22 5 22 -5
-1 -14 -7 -20 -15z m33 -119 c21 -21 17 -46 -6 -46 -16 0 -20 7 -20 30 0 34 5
37 26 16z"/>
<path d="M4881 3634 c-1 -6 6 -32 16 -59 14 -44 17 -46 24 -26 10 25 6 77 -6
89 -4 4 -6 -10 -3 -30 4 -43 -2 -41 -19 5 -6 18 -12 27 -12 21z"/>
<path d="M3361 3596 c-5 -17 -14 -46 -20 -64 -9 -29 -8 -32 4 -22 12 10 15 9
15 -4 0 -9 5 -16 10 -16 19 0 11 -55 -10 -68 -11 -7 -20 -21 -20 -32 0 -11 -5
-20 -11 -20 -5 0 -7 5 -3 12 4 7 3 8 -4 4 -7 -4 -12 -1 -12 6 0 10 -3 9 -11
-2 -9 -12 -10 -10 -5 8 3 12 9 32 12 45 3 12 -7 0 -21 -28 -15 -27 -33 -57
-41 -66 -11 -12 -11 -18 -2 -27 18 -18 30 -14 19 6 -6 12 -5 23 4 35 15 21 25
22 25 2 0 -9 6 -15 13 -14 39 5 56 -2 50 -18 -6 -17 -5 -17 14 0 24 21 34 22
27 2 -4 -8 -1 -15 5 -15 6 0 11 5 11 10 0 6 4 10 10 10 5 0 7 -7 4 -15 -4 -8
-1 -15 5 -15 6 0 11 9 11 20 0 11 -3 20 -7 20 -5 0 -8 14 -9 30 -1 17 3 30 7
30 5 0 9 14 9 30 0 23 -4 30 -20 30 -18 0 -20 7 -22 68 0 37 -1 72 -1 78 0 24
-28 9 -36 -20z m29 -10 c0 -23 -11 -46 -20 -41 -10 6 0 55 11 55 5 0 9 -6 9
-14z m20 -211 c0 -8 -4 -15 -10 -15 -5 0 -7 7 -4 15 4 8 8 15 10 15 2 0 4 -7
4 -15z"/>
<path d="M3501 3589 c-13 -30 -23 -66 -38 -143 -4 -18 -1 -31 8 -37 17 -10 26
21 28 93 0 25 6 48 12 50 6 2 9 18 7 36 l-3 33 -14 -32z"/>
<path d="M4771 3604 c0 -11 3 -14 6 -6 3 7 2 16 -1 19 -3 4 -6 -2 -5 -13z"/>
<path d="M3221 3594 c0 -11 3 -14 6 -6 3 7 2 16 -1 19 -3 4 -6 -2 -5 -13z"/>
<path d="M4105 3547 c11 -9 30 -17 41 -17 23 0 48 -23 37 -33 -3 -4 -13 -7
-20 -7 -14 0 -43 -23 -43 -34 0 -3 7 -6 15 -6 8 0 15 4 15 9 0 5 14 11 31 13
22 4 34 0 42 -14 9 -13 24 -18 56 -18 53 0 50 7 -5 15 -21 4 -44 13 -50 21 -6
8 -17 14 -23 14 -7 0 -10 4 -7 9 9 14 -38 50 -74 57 -33 6 -34 6 -15 -9z"/>
<path d="M2990 3518 c0 -18 -3 -57 -6 -85 -4 -29 -3 -53 2 -53 5 0 10 38 12
85 2 47 1 85 -2 85 -3 0 -6 -15 -6 -32z"/>
<path d="M3042 3473 c-1 -55 -6 -83 -14 -86 -7 -2 -10 -8 -5 -13 4 -4 13 -1
20 7 10 10 11 35 7 94 l-7 80 -1 -82z"/>
<path d="M3990 3540 c0 -5 6 -10 14 -10 8 0 18 5 21 10 3 6 -3 10 -14 10 -12
0 -21 -4 -21 -10z"/>
<path d="M5172 3525 c0 -16 2 -22 5 -12 2 9 2 23 0 30 -3 6 -5 -1 -5 -18z"/>
<path d="M5130 3525 c0 -8 4 -15 10 -15 5 0 7 7 4 15 -4 8 -8 15 -10 15 -2 0
-4 -7 -4 -15z"/>
<path d="M3950 3499 c0 -5 4 -8 8 -5 18 11 37 -31 40 -86 l4 -58 -161 0 -161
0 0 -60 0 -60 -42 -1 c-24 -1 -57 -2 -74 -4 -24 -2 -30 1 -29 16 1 10 4 22 8
25 4 4 7 12 7 17 0 6 -13 -8 -30 -31 -16 -23 -38 -46 -49 -52 -20 -10 -20 -11
-1 -30 27 -27 47 -25 53 5 4 25 3 25 -19 10 -31 -20 -38 -5 -9 21 17 15 27 18
34 11 14 -14 14 -67 1 -67 -5 0 -10 -18 -10 -40 0 -39 -1 -40 -34 -40 -32 0
-35 -2 -41 -40 -7 -43 -24 -55 -26 -17 -1 17 -3 15 -10 -10 -5 -18 -14 -33
-19 -33 -5 0 -14 15 -19 33 -9 30 -9 29 -10 -20 -1 -44 2 -53 17 -54 13 0 12
-2 -6 -9 -49 -20 -117 -110 -82 -110 6 0 10 5 10 10 0 6 9 10 20 10 11 0 20
-4 20 -10 0 -6 37 -10 90 -10 83 0 90 1 90 20 0 17 7 20 49 20 27 0 51 -5 53
-10 2 -8 204 -12 631 -13 345 -1 627 -5 627 -9 0 -5 -8 -8 -19 -8 -11 0 -21
-9 -24 -21 l-6 -21 -724 3 c-399 2 -723 7 -720 12 2 4 -1 7 -6 7 -6 0 -11 -4
-11 -9 0 -5 -9 -11 -20 -14 -20 -5 -21 -11 -20 -317 1 -171 -2 -315 -6 -318
-4 -4 -5 0 -2 8 3 8 -2 20 -11 26 -11 8 -14 27 -12 68 1 35 -2 56 -8 56 -12 0
-12 -1 -16 -40 -4 -34 15 -111 26 -104 5 3 9 -6 9 -20 0 -14 4 -26 9 -26 6 0
10 -8 10 -17 0 -10 4 -36 10 -58 6 -22 11 -95 11 -163 l0 -122 748 2 747 3 0
85 0 85 -45 5 c-34 4 -47 10 -55 28 -11 24 -31 31 -21 7 5 -13 -31 -15 -282
-17 -373 -3 -411 -3 -639 2 l-193 4 -1 31 -2 30 -4 -30 c-5 -32 -18 -45 -46
-45 -16 0 -18 10 -16 109 l1 108 562 2 c309 1 569 -1 579 -5 15 -5 16 -9 5
-15 -9 -6 -7 -9 10 -9 13 0 22 6 22 15 0 22 17 18 23 -5 3 -11 4 -21 4 -22 -1
-1 -243 -5 -537 -8 l-535 -5 535 -5 c322 -2 481 -6 400 -10 l-135 -6 123 -2
c115 -2 122 -3 122 -22 0 -16 6 -20 33 -19 17 0 26 3 20 6 -22 8 -16 36 6 30
13 -3 21 2 26 17 6 18 8 18 12 4 2 -9 -1 -26 -7 -37 -6 -12 -7 -21 -2 -21 10
0 25 37 23 57 -1 6 3 14 9 18 5 3 9 18 9 33 -2 24 -2 24 -6 5 -4 -23 -23 -33
-23 -12 0 6 -6 17 -14 24 -12 12 -15 12 -20 -2 -12 -31 -21 -1 -19 65 l1 67
-8 -58 c-12 -90 -20 -80 -20 26 l0 97 70 0 70 0 1 -37 c1 -31 3 -27 11 22 12
75 3 146 -18 138 -9 -3 -14 2 -14 16 0 12 -4 21 -10 21 -5 0 -10 -4 -10 -10 0
-6 -43 -10 -110 -10 -67 0 -110 4 -110 10 0 6 32 10 75 10 62 0 80 4 97 20
l22 20 -90 2 -89 2 115 5 115 6 0 103 c0 100 0 102 23 102 13 0 30 6 38 14 21
21 17 46 -6 46 -17 0 -20 7 -20 50 0 28 -4 50 -10 50 -5 0 -10 21 -10 46 0 52
-16 74 -54 74 -19 0 -26 -5 -26 -20 0 -11 -4 -20 -10 -20 -5 0 -10 12 -10 26
0 29 -21 54 -44 54 -10 0 -16 9 -16 21 0 30 -27 54 -44 39 -12 -9 -13 -7 -9 9
6 25 -3 27 -25 4 -16 -16 -17 -14 -20 28 -2 24 -8 49 -14 54 -8 7 -9 5 -5 -7
4 -10 2 -18 -2 -18 -5 0 -16 -3 -25 -6 -12 -5 -16 1 -16 24 0 17 6 33 13 36
10 5 10 7 0 12 -7 3 -13 18 -13 34 0 16 6 30 13 33 9 3 9 7 -2 20 -15 18 -51
23 -51 7 0 -5 -9 -10 -20 -10 -11 0 -20 -6 -20 -14 0 -23 -150 -32 -186 -12
-27 15 -27 16 -4 10 14 -4 22 -3 17 1 -4 5 -46 10 -95 13 -48 2 -88 8 -90 13
-2 5 -20 9 -41 9 -31 0 -37 3 -39 24 -1 19 2 23 17 19 11 -3 18 1 18 11 0 10
-9 16 -23 16 -17 0 -22 4 -18 15 5 11 -1 15 -24 15 -17 0 -34 5 -37 10 -8 13
-25 13 -25 -1z m-310 -579 c0 -6 -27 -10 -60 -10 -33 0 -60 4 -60 10 0 6 27
10 60 10 33 0 60 -4 60 -10z m960 0 c0 -6 -80 -10 -220 -10 -140 0 -220 -4
-220 -10 0 -6 113 -10 320 -10 313 0 320 0 320 -20 0 -17 -7 -20 -40 -20 -22
0 -40 5 -40 10 0 7 -210 10 -610 10 -400 0 -610 3 -610 10 0 6 37 10 90 10 53
0 90 4 90 10 0 6 87 10 240 10 153 0 240 4 240 10 0 6 80 10 220 10 140 0 220
-4 220 -10z m-1003 -375 c0 -8 -4 -15 -8 -15 -4 0 -5 -17 -3 -37 11 -80 13
-83 44 -83 17 0 30 5 30 10 0 7 143 10 410 10 267 0 410 -3 410 -10 0 -6 47
-10 120 -10 72 0 120 -4 120 -10 0 -6 -157 -11 -437 -13 l-438 -3 448 1 c392
0 447 -2 445 -15 -3 -13 -79 -15 -601 -18 l-597 -2 0 105 0 105 28 0 c19 0 29
-5 29 -15z m791 -12 c-131 -2 -345 -2 -475 0 -131 1 -24 2 237 2 261 0 368 -1
238 -2z"/>
<path d="M4058 2363 c123 -2 321 -2 440 0 119 1 19 2 -223 2 -242 0 -340 -1
-217 -2z"/>
<path d="M4935 3480 c13 -26 19 -29 31 -19 16 13 19 39 4 39 -5 0 -10 -10 -11
-22 l0 -23 -9 21 c-5 12 -14 25 -20 29 -6 4 -4 -7 5 -25z"/>
<path d="M3610 3483 c0 -8 5 -11 10 -8 6 3 11 -4 11 -17 1 -20 2 -21 6 -3 3
11 10 23 15 26 5 4 -2 9 -16 11 -18 4 -26 1 -26 -9z"/>
<path d="M4070 3490 c-24 -15 -7 -18 20 -3 14 7 18 13 10 13 -8 0 -22 -4 -30
-10z"/>
<path d="M3320 3462 c0 -18 5 -32 10 -32 6 0 8 11 4 28 -10 39 -14 40 -14 4z"/>
<path d="M3935 3481 c3 -5 1 -12 -5 -16 -5 -3 -10 -13 -10 -22 0 -14 3 -14 20
2 24 22 25 31 4 39 -8 3 -12 2 -9 -3z"/>
<path d="M4826 3470 c9 -35 33 -78 33 -60 0 8 -9 31 -20 50 -15 26 -18 29 -13
10z"/>
<path d="M4994 3436 c2 -39 8 -63 21 -74 16 -16 17 -16 5 7 -7 14 -14 44 -15
68 -1 24 -5 46 -8 50 -4 3 -5 -20 -3 -51z"/>
<path d="M3340 3465 c0 -9 6 -12 15 -9 8 4 15 7 15 9 0 2 -7 5 -15 9 -9 3 -15
0 -15 -9z"/>
<path d="M3670 3464 c0 -8 5 -12 10 -9 6 4 8 11 5 16 -9 14 -15 11 -15 -7z"/>
<path d="M4540 3460 c0 -5 5 -10 11 -10 5 0 7 5 4 10 -3 6 -8 10 -11 10 -2 0
-4 -4 -4 -10z"/>
<path d="M4170 3455 c0 -7 61 -37 67 -32 2 3 -5 8 -16 12 -12 3 -21 11 -21 16
0 5 -7 9 -15 9 -8 0 -15 -2 -15 -5z"/>
<path d="M4330 3450 c0 -5 4 -10 9 -10 6 0 13 5 16 10 3 6 -1 10 -9 10 -9 0
-16 -4 -16 -10z"/>
<path d="M4400 3452 c0 -5 14 -7 30 -4 17 2 30 6 30 8 0 2 -13 4 -30 4 -16 0
-30 -4 -30 -8z"/>
<path d="M3858 3443 c7 -3 16 -2 19 1 4 3 -2 6 -13 5 -11 0 -14 -3 -6 -6z"/>
<path d="M3602 3415 c0 -16 2 -22 5 -12 2 9 2 23 0 30 -3 6 -5 -1 -5 -18z"/>
<path d="M3718 3433 c-29 -7 -20 -23 12 -23 17 0 30 -4 30 -10 0 -15 57 -12
63 3 4 8 8 9 14 1 4 -6 18 -13 29 -16 18 -5 21 -2 16 15 -4 15 -2 18 8 12 8
-5 11 -4 7 2 -3 5 -34 11 -69 12 -35 1 -70 3 -78 5 -8 2 -23 1 -32 -1z"/>
<path d="M4450 3430 c0 -5 5 -10 10 -10 6 0 10 5 10 10 0 6 -4 10 -10 10 -5 0
-10 -4 -10 -10z"/>
<path d="M4806 3423 c-5 -17 -1 -29 19 -48 14 -15 22 -32 19 -38 -4 -7 -4 -9
1 -5 4 4 13 3 20 -2 8 -6 18 -5 29 3 17 12 16 14 -4 37 -19 22 -20 23 -11 3 6
-12 11 -25 11 -29 0 -7 -48 53 -66 82 -11 18 -11 18 -18 -3z"/>
<path d="M4970 3431 c0 -6 4 -13 10 -16 6 -3 7 1 4 9 -7 18 -14 21 -14 7z"/>
<path d="M3650 3421 c0 -17 21 -24 33 -11 9 10 9 11 0 6 -7 -4 -13 -2 -13 3 0
6 -4 11 -10 11 -5 0 -10 -4 -10 -9z"/>
<path d="M4330 3419 c0 -5 20 -9 45 -9 59 0 59 14 0 17 -25 1 -45 -3 -45 -8z"/>
<path d="M5160 3398 c0 -18 -3 -44 -7 -57 -6 -23 -7 -23 -14 -5 -6 16 -8 15
-8 -8 -1 -44 26 -23 34 25 4 23 9 50 11 60 3 9 1 17 -5 17 -6 0 -11 -15 -11
-32z"/>
<path d="M5130 3395 c0 -15 4 -24 10 -20 6 3 10 12 10 20 0 8 -4 17 -10 20 -6
4 -10 -5 -10 -20z"/>
<path d="M3080 3396 c0 -9 7 -16 16 -16 9 0 14 5 12 12 -6 18 -28 21 -28 4z"/>
<path d="M5020 3405 c0 -5 5 -17 10 -25 5 -8 10 -10 10 -5 0 6 -5 17 -10 25
-5 8 -10 11 -10 5z"/>
<path d="M4320 3390 c-12 -8 -10 -10 8 -10 13 0 20 4 17 10 -7 12 -6 12 -25 0z"/>
<path d="M3120 3370 c0 -19 3 -21 12 -12 9 9 9 15 0 24 -9 9 -12 7 -12 -12z"/>
<path d="M3446 3373 c-4 -9 -2 -21 4 -27 7 -7 10 -2 10 17 0 31 -5 34 -14 10z"/>
<path d="M3718 3383 c6 -2 18 -2 25 0 6 3 1 5 -13 5 -14 0 -19 -2 -12 -5z"/>
<path d="M3053 3365 c-10 -11 -10 -15 0 -19 9 -3 9 -7 1 -13 -15 -10 -13 -55
2 -60 6 -2 14 3 17 11 4 10 1 13 -9 9 -10 -4 -12 0 -7 13 3 11 11 23 17 27 8
6 7 10 -1 13 -7 3 -9 12 -6 20 6 18 2 17 -14 -1z"/>
<path d="M3575 3343 c-9 -21 -12 -39 -7 -41 5 -1 7 -14 4 -27 -2 -14 0 -25 6
-25 14 0 24 61 12 75 -6 7 -4 19 6 33 8 12 10 22 5 22 -6 0 -18 -17 -26 -37z"/>
<path d="M3090 3360 c0 -5 5 -10 10 -10 6 0 10 5 10 10 0 6 -4 10 -10 10 -5 0
-10 -4 -10 -10z"/>
<path d="M4700 3360 c0 -5 5 -10 10 -10 6 0 10 5 10 10 0 6 -4 10 -10 10 -5 0
-10 -4 -10 -10z"/>
<path d="M5060 3341 c0 -5 7 -11 14 -14 10 -4 13 -1 9 9 -6 15 -23 19 -23 5z"/>
<path d="M3010 3330 c0 -6 -4 -8 -10 -5 -5 3 -10 2 -10 -2 0 -5 9 -14 20 -21
17 -11 20 -10 20 7 0 11 -4 23 -10 26 -5 3 -10 1 -10 -5z"/>
<path d="M3095 3329 c-11 -17 1 -21 15 -4 8 9 8 15 2 15 -6 0 -14 -5 -17 -11z"/>
<path d="M4570 3329 c0 -5 5 -7 10 -4 6 3 10 8 10 11 0 2 -4 4 -10 4 -5 0 -10
-5 -10 -11z"/>
<path d="M4725 3319 c32 -38 64 -69 69 -69 3 0 30 -11 61 -25 52 -24 135 -45
178 -45 16 0 17 2 7 15 -11 13 -15 13 -21 3 -6 -10 -14 -7 -31 11 l-23 23 25
-7 c22 -7 23 -6 11 9 -22 26 -44 20 -38 -10 4 -23 2 -25 -22 -19 -36 9 -49 24
-31 35 12 8 11 10 -5 11 l-20 0 20 9 c11 5 14 9 8 9 -7 1 -13 10 -13 21 0 11
-4 20 -10 20 -5 0 -10 -11 -10 -24 0 -16 -7 -26 -22 -30 -30 -7 -80 15 -73 32
8 22 -5 35 -21 21 -8 -6 -14 -7 -14 -3 0 5 -10 15 -22 23 l-23 14 20 -24z"/>
<path d="M4915 3310 c3 -5 8 -10 11 -10 2 0 4 5 4 10 0 6 -5 10 -11 10 -5 0
-7 -4 -4 -10z"/>
<path d="M5060 3312 c0 -5 7 -15 15 -22 8 -7 15 -9 15 -6 0 4 -7 14 -15 22 -8
9 -15 11 -15 6z"/>
<path d="M3376 3303 c-4 -5 -13 -8 -19 -8 -7 0 -11 -10 -10 -22 2 -15 -6 -25
-27 -35 -17 -7 -30 -16 -30 -21 0 -8 43 12 74 36 11 8 20 24 21 36 2 23 1 24
-9 14z"/>
<path d="M4600 3298 c0 -9 5 -20 10 -23 13 -8 13 5 0 25 -8 13 -10 13 -10 -2z"/>
<path d="M3190 3281 c0 -5 6 -11 13 -14 9 -3 9 -7 -2 -20 -18 -22 -32 -22 -24
1 5 14 2 13 -15 -4 -19 -20 -26 -74 -9 -74 4 0 7 5 7 10 0 6 6 10 13 10 16 0
47 67 40 86 -6 16 -23 19 -23 5z"/>
<path d="M5125 3280 c-3 -5 -2 -10 4 -10 5 0 13 5 16 10 3 6 2 10 -4 10 -5 0
-13 -4 -16 -10z"/>
<path d="M3010 3261 c0 -6 5 -13 12 -17 6 -4 8 -3 4 4 -3 5 0 13 6 15 8 3 6 6
-4 6 -10 1 -18 -3 -18 -8z"/>
<path d="M5109 3258 c15 -21 31 -23 31 -6 0 6 -3 8 -7 5 -3 -4 -13 -1 -22 6
-14 11 -14 10 -2 -5z"/>
<path d="M3298 3253 c7 -3 16 -2 19 1 4 3 -2 6 -13 5 -11 0 -14 -3 -6 -6z"/>
<path d="M3211 3214 c0 -11 3 -14 6 -6 3 7 2 16 -1 19 -3 4 -6 -2 -5 -13z"/>
<path d="M3249 3214 c-12 -14 -11 -16 5 -13 11 2 21 10 24 17 5 17 -13 15 -29
-4z"/>
<path d="M4636 3193 c-6 -14 -5 -15 5 -6 7 7 10 15 7 18 -3 3 -9 -2 -12 -12z"/>
<path d="M4670 3200 c0 -5 5 -10 10 -10 6 0 10 5 10 10 0 6 -4 10 -10 10 -5 0
-10 -4 -10 -10z"/>
<path d="M3423 3160 c-13 -5 -23 -11 -23 -14 0 -7 40 6 46 15 6 10 6 10 -23
-1z"/>
<path d="M4728 3153 c7 -3 16 -2 19 1 4 3 -2 6 -13 5 -11 0 -14 -3 -6 -6z"/>
<path d="M4810 3110 c8 -5 20 -10 25 -10 6 0 3 5 -5 10 -8 5 -19 10 -25 10 -5
0 -3 -5 5 -10z"/>
<path d="M3250 3080 c-8 -5 -10 -10 -5 -10 6 0 17 5 25 10 8 5 11 10 5 10 -5
0 -17 -5 -25 -10z"/>
<path d="M4880 3079 c0 -5 5 -7 10 -4 6 3 10 8 10 11 0 2 -4 4 -10 4 -5 0 -10
-5 -10 -11z"/>
<path d="M3163 3073 l-43 -4 0 -42 c0 -23 5 -49 11 -57 8 -11 9 -7 4 17 -10
48 2 73 33 74 15 0 36 4 47 9 21 9 18 9 -52 3z"/>
<path d="M4941 3066 c2 -2 22 -6 44 -9 27 -4 35 -3 25 3 -14 9 -79 15 -69 6z"/>
<path d="M3163 3043 c-13 -2 -20 -10 -17 -17 7 -17 54 -8 54 10 0 8 -3 13 -7
13 -5 -1 -18 -4 -30 -6z"/>
<path d="M4940 3021 c0 -17 5 -31 10 -31 6 0 10 -9 10 -20 0 -11 5 -20 10 -20
6 0 10 -8 11 -17 0 -14 2 -13 9 5 5 12 12 22 15 22 4 0 4 -10 0 -22 -5 -18 -4
-20 4 -7 16 25 2 59 -25 59 -19 0 -24 5 -24 24 0 14 -4 28 -10 31 -6 4 -10 -7
-10 -24z"/>
<path d="M5033 3025 c-3 -9 -3 -18 -1 -21 3 -3 8 4 11 16 6 23 -1 27 -10 5z"/>
<path d="M3140 2931 c0 -16 18 -22 24 -9 4 7 4 3 2 -10 -2 -12 0 -20 5 -16 18
11 10 44 -11 44 -11 0 -20 -4 -20 -9z"/>
<path d="M4986 2874 c-4 -14 -5 -28 -3 -31 3 -2 8 8 11 23 4 14 5 28 3 31 -3
2 -8 -8 -11 -23z"/>
<path d="M3173 2875 c-7 -8 -13 -21 -13 -29 0 -22 18 -29 23 -9 2 10 3 -4 1
-32 -2 -38 -1 -43 5 -20 4 17 12 29 19 28 8 -2 12 9 11 30 -1 20 -3 25 -6 12
-5 -17 -6 -17 -17 7 -9 22 -13 24 -23 13z"/>
<path d="M3568 2793 c28 -2 76 -2 105 0 28 2 5 3 -53 3 -58 0 -81 -1 -52 -3z"/>
<path d="M3280 2763 c0 -31 -44 -125 -54 -116 -3 4 -6 -1 -6 -11 0 -9 4 -14
10 -11 6 4 8 -7 6 -26 -4 -38 2 -61 15 -53 9 5 12 -4 11 -46 l-1 -25 8 25 c5
14 9 58 10 98 1 41 5 72 11 72 6 0 10 9 10 19 0 11 6 22 13 25 8 4 8 8 1 11
-6 3 -8 19 -6 35 3 23 0 30 -12 30 -11 0 -16 -9 -16 -27z"/>
<path d="M4952 2760 c0 -19 2 -27 5 -17 2 9 2 25 0 35 -3 9 -5 1 -5 -18z"/>
<path d="M1732 2248 l3 -503 742 -3 743 -2 5 23 c4 12 5 50 3 82 l-3 60 -655
5 -655 5 -3 418 -2 417 -90 0 -90 0 2 -502z"/>
<path d="M3261 2734 c0 -11 3 -14 6 -6 3 7 2 16 -1 19 -3 4 -6 -2 -5 -13z"/>
<path d="M5012 2248 l3 -503 665 0 c618 0 668 1 712 18 56 22 113 81 127 134
15 52 15 640 0 697 -14 56 -62 114 -113 137 -39 17 -81 19 -719 19 l-677 0 2
-502z m1262 323 c87 -14 86 -12 86 -323 l0 -270 -28 -28 c-19 -19 -43 -30 -73
-35 -24 -3 -276 -5 -559 -3 l-515 3 -3 320 c-1 176 0 325 3 332 3 10 115 13
522 12 285 0 540 -4 567 -8z"/>
<path d="M4925 2678 c-6 -19 -8 -20 -12 -5 -4 15 -33 25 -33 11 0 -9 28 -34
39 -34 10 0 26 38 18 46 -2 3 -8 -6 -12 -18z"/>
<path d="M4882 2640 c0 -30 16 -84 17 -57 1 9 6 17 11 17 6 0 10 7 10 15 0 8
-6 15 -14 15 -8 0 -17 8 -19 18 -3 11 -5 8 -5 -8z"/>
<path d="M4912 2570 c0 -14 2 -19 5 -12 2 6 2 18 0 25 -3 6 -5 1 -5 -13z"/>
<path d="M4867 2564 c-4 -4 -3 -12 2 -18 5 -6 11 -20 13 -31 3 -15 6 -11 9 12
3 18 2 30 -2 27 -4 -2 -9 1 -11 7 -2 5 -7 7 -11 3z"/>
<path d="M3241 2504 c0 -11 3 -14 6 -6 3 7 2 16 -1 19 -3 4 -6 -2 -5 -13z"/>
<path d="M4902 2500 c0 -14 2 -19 5 -12 2 6 2 18 0 25 -3 6 -5 1 -5 -13z"/>
<path d="M3250 2394 c0 -23 1 -24 16 -10 8 9 12 20 9 26 -12 19 -25 10 -25
-16z"/>
<path d="M4793 2295 c-15 -17 -17 -105 -3 -105 6 0 10 11 10 25 0 18 5 25 20
25 11 0 20 7 20 15 0 8 -4 15 -10 15 -5 0 -10 9 -10 20 0 23 -10 25 -27 5z"/>
<path d="M3578 2123 c12 -2 32 -2 45 0 12 2 2 4 -23 4 -25 0 -35 -2 -22 -4z"/>
<path d="M3601 2074 c0 -11 3 -14 6 -6 3 7 2 16 -1 19 -3 4 -6 -2 -5 -13z"/>
<path d="M3621 2074 c0 -11 3 -14 6 -6 3 7 2 16 -1 19 -3 4 -6 -2 -5 -13z"/>
<path d="M3640 2081 c0 -6 5 -13 10 -16 6 -3 10 1 10 9 0 9 -4 16 -10 16 -5 0
-10 -4 -10 -9z"/>
<path d="M3679 2079 c0 -2 -2 -15 -4 -29 l-3 -25 461 -3 c254 -1 486 -5 515
-9 35 -3 52 -2 52 6 0 8 -120 11 -430 11 -280 0 -430 3 -430 10 0 6 60 10 160
10 100 0 160 4 160 10 0 6 -81 10 -224 10 -123 0 -231 3 -240 6 -9 3 -16 5
-17 3z"/>
<path d="M4740 2000 c0 -5 5 -10 10 -10 6 0 10 5 10 10 0 6 -4 10 -10 10 -5 0
-10 -4 -10 -10z"/>
<path d="M4771 1976 l-24 -31 28 27 c16 15 27 29 24 31 -2 3 -15 -10 -28 -27z"/>
<path d="M3621 1984 c0 -11 3 -14 6 -6 3 7 2 16 -1 19 -3 4 -6 -2 -5 -13z"/>
<path d="M3646 1991 c-4 -7 -5 -15 -2 -18 9 -9 19 4 14 18 -4 11 -6 11 -12 0z"/>
<path d="M3920 1990 c-185 -4 -126 -6 240 -6 276 -1 444 2 390 6 -105 8 -260
8 -630 0z"/>
<path d="M3713 1963 c26 -2 67 -2 90 0 23 2 2 3 -48 3 -49 0 -68 -1 -42 -3z"/>
<path d="M4238 1963 c45 -2 119 -2 165 0 45 1 8 3 -83 3 -91 0 -128 -2 -82 -3z"/>
<path d="M4658 1963 c12 -2 30 -2 40 0 9 3 -1 5 -23 4 -22 0 -30 -2 -17 -4z"/>
</g>
</svg>
